<?xml version="1.0" standalone="no"?>
<!DOCTYPE svg PUBLIC "-//W3C//DTD SVG 20010904//EN"
 "http://www.w3.org/TR/2001/REC-SVG-20010904/DTD/svg10.dtd">
<svg version="1.0" xmlns="http://www.w3.org/2000/svg"
 width="260.000000pt" height="260.000000pt" viewBox="0 0 260.000000 260.000000"
 preserveAspectRatio="xMidYMid meet">
<metadata>
Created by potrace 1.11, written by Peter Selinger 2001-2013
</metadata>
<g transform="translate(0.000000,260.000000) scale(0.100000,-0.100000)"
fill="#000000" stroke="none">
<path d="M1152 2373 c-6 -16 -23 -71 -38 -123 -15 -52 -32 -100 -38 -106 -6
-6 -31 -16 -55 -23 -24 -7 -72 -26 -107 -43 l-63 -30 -124 65 -124 65 -95 -96
-96 -97 29 -47 c15 -26 42 -73 60 -105 17 -32 36 -63 41 -70 6 -7 0 -30 -17
-65 -15 -29 -37 -82 -50 -117 l-23 -65 -127 -37 c-70 -21 -130 -40 -133 -44
-4 -4 -7 -65 -7 -137 -1 -108 2 -131 15 -137 8 -3 66 -21 129 -41 l114 -35 44
-105 c25 -58 47 -112 49 -120 2 -8 -24 -68 -59 -132 l-64 -117 97 -96 97 -97
122 62 122 61 102 -40 c56 -22 109 -42 117 -44 11 -3 30 -51 55 -136 l39 -131
138 0 138 0 42 134 42 135 44 11 c25 6 77 26 116 45 l70 33 106 -55 c58 -31
109 -60 115 -64 5 -5 13 -9 18 -9 5 0 51 42 103 94 l94 95 -65 125 c-65 124
-66 125 -49 151 10 15 32 65 50 113 l32 86 134 41 133 40 1 132 0 133 -100 30
c-177 54 -165 46 -196 125 -14 39 -36 89 -48 112 l-22 42 59 123 59 123 -96
97 -95 97 -41 -23 c-23 -13 -76 -42 -119 -65 l-79 -42 -101 40 c-56 21 -109
42 -118 44 -10 4 -25 33 -38 79 -12 40 -30 98 -40 128 l-18 55 -135 3 -135 3
-11 -28z m254 -634 c112 -27 224 -105 283 -197 88 -137 97 -291 26 -437 -57
-118 -170 -212 -295 -245 -63 -17 -175 -15 -240 4 -438 130 -438 739 0 867 69
20 163 23 226 8z"/>
</g>
</svg>
