<?xml version="1.0" encoding="utf-8"?>
<!-- Generator: Adobe Illustrator 15.0.0, SVG Export Plug-In . SVG Version: 6.00 Build 0)  -->
<!DOCTYPE svg PUBLIC "-//W3C//DTD SVG 1.1//EN" "http://www.w3.org/Graphics/SVG/1.1/DTD/svg11.dtd">
<svg version="1.1" id="圖層_1" xmlns="http://www.w3.org/2000/svg" xmlns:xlink="http://www.w3.org/1999/xlink" x="0px" y="0px"
	 width="118px" height="40px" viewBox="0 0 118 40" enable-background="new 0 0 118 40" xml:space="preserve">
<path fill="#FFFFFF" stroke="#4E5B60" stroke-width="2.58" stroke-miterlimit="10" d="M116.659,31.945
	c0,0.345-0.277,0.623-0.621,0.623H1.911c-0.343,0-0.621-0.278-0.621-0.623V1.911c0-0.344,0.278-0.621,0.621-0.621h114.127
	c0.344,0,0.621,0.277,0.621,0.621V31.945z"/>
<path fill="#FFFFFF" stroke="#4E5B60" stroke-width="2.58" stroke-miterlimit="10" d="M19.166,14.825
	c0,0.344-0.278,0.623-0.621,0.623H9.226c-0.343,0-0.621-0.278-0.621-0.623V6.728c0-0.344,0.278-0.621,0.621-0.621h9.319
	c0.343,0,0.621,0.277,0.621,0.621V14.825z"/>
<path fill="#FFFFFF" stroke="#4E5B60" stroke-width="2.58" stroke-miterlimit="10" d="M37.853,14.825
	c0,0.344-0.278,0.623-0.621,0.623h-9.319c-0.343,0-0.621-0.278-0.621-0.623V6.728c0-0.344,0.278-0.621,0.621-0.621h9.319
	c0.343,0,0.621,0.277,0.621,0.621V14.825z"/>
<path fill="#FFFFFF" stroke="#4E5B60" stroke-width="2.58" stroke-miterlimit="10" d="M56.537,14.825
	c0,0.344-0.278,0.623-0.621,0.623h-9.319c-0.343,0-0.621-0.278-0.621-0.623V6.728c0-0.344,0.278-0.621,0.621-0.621h9.319
	c0.343,0,0.621,0.277,0.621,0.621V14.825z"/>
<path fill="#FFFFFF" stroke="#4E5B60" stroke-width="2.58" stroke-miterlimit="10" d="M75.227,14.825
	c0,0.344-0.277,0.623-0.623,0.623h-9.318c-0.34,0-0.621-0.278-0.621-0.623V6.728c0-0.344,0.281-0.621,0.621-0.621h9.318
	c0.346,0,0.623,0.277,0.623,0.621V14.825z"/>
<path fill="#FFFFFF" stroke="#4E5B60" stroke-width="2.58" stroke-miterlimit="10" d="M116.659,6.106h-13.998
	c-0.345,0-0.621,0.277-0.621,0.621v8.098c0,0.344,0.276,0.623,0.621,0.623h13.998V6.106z"/>
<path fill="#FF8C1D" stroke="#4E5B60" stroke-width="2.58" stroke-miterlimit="10" d="M93.913,32.568V6.728
	c0-0.344-0.276-0.621-0.621-0.621h-9.317c-0.345,0-0.621,0.277-0.621,0.621v25.84H93.913z"/>
<circle fill="#ACAEAF" stroke="#4E5B60" stroke-width="2.58" stroke-miterlimit="10" cx="22.416" cy="32.569" r="5.89"/>
<circle fill="#ACAEAF" stroke="#4E5B60" stroke-width="2.58" stroke-miterlimit="10" cx="105.189" cy="32.569" r="5.89"/>
</svg>
