<?xml version="1.0" encoding="utf-8"?>
<!-- Generator: Adobe Illustrator 15.0.0, SVG Export Plug-In  -->
<!DOCTYPE svg PUBLIC "-//W3C//DTD SVG 1.1//EN" "http://www.w3.org/Graphics/SVG/1.1/DTD/svg11.dtd" [
	<!ENTITY ns_flows "http://ns.adobe.com/Flows/1.0/">
]>
<svg version="1.1"
	 xmlns="http://www.w3.org/2000/svg" xmlns:xlink="http://www.w3.org/1999/xlink" xmlns:a="http://ns.adobe.com/AdobeSVGViewerExtensions/3.0/"
	 x="0px" y="0px" width="470px" height="121px" viewBox="0 0 470 121" overflow="visible" enable-background="new 0 0 470 121"
	 xml:space="preserve">
<defs>
</defs>
<path fill="#009FE8" d="M12.4,0.9C23.4,1,32,4.1,38,10.2c6.7,6.7,10,14.8,10,24.3c0,9.5-3.3,17.6-10,24.3
	c-6.1,6.1-14.6,9.1-25.6,9.2H0v-67H12.4z M3.8,4.9V64h8.6c9.6,0,17.2-2.7,22.8-8.1c5.9-5.9,8.9-13.1,8.9-21.6c0-8.4-3-15.6-8.9-21.6
	c-5.6-5.3-13.2-8-22.8-8H3.8z"/>
<path fill="#009FE8" d="M57.6,44c-0.1,0.7-0.1,1.4-0.1,2.1c0,5.2,1.9,9.7,5.6,13.4c3.7,3.7,8.2,5.5,13.4,5.5c5.2,0,9.7-1.9,13.5-5.6
	c0.6-0.6,1.2-1.3,1.8-2l4,1.4c-0.5,0.8-1.5,1.9-3,3.4c-4.5,4.5-9.9,6.8-16.3,6.8c-6.3,0-11.7-2.3-16.2-6.8
	c-4.5-4.5-6.8-9.9-6.8-16.2c0-6.4,2.3-11.8,6.8-16.3c4.5-4.5,9.9-6.7,16.2-6.7c6.4,0,11.8,2.2,16.3,6.7c3.9,4,5.9,8.7,5.9,14.2H57.6
	z M58.3,40.2h36.1c-0.9-2.9-2.4-5.4-4.5-7.5c-3.7-3.7-8.2-5.6-13.5-5.6c-5.2,0-9.7,1.9-13.5,5.6C60.8,34.9,59.2,37.4,58.3,40.2z"/>
<path fill="#009FE8" d="M139,26.8l-18.4,41.1h-2l-18.2-41.1h4.4l14.8,34.3l15-34.3H139z"/>
<path fill="#009FE8" d="M200.6,10.1c6.7,6.7,10.1,14.8,10.1,24.3c0,9.5-3.4,17.6-10.1,24.3c-6.7,6.7-14.8,10.1-24.3,10.1
	c-9.5,0-17.6-3.4-24.3-10.1c-6.7-6.7-10.1-14.8-10.1-24.3c0-9.5,3.4-17.6,10.1-24.3C158.7,3.4,166.8,0,176.2,0
	C185.7,0,193.8,3.4,200.6,10.1z M176.2,3.8c-8.4,0-15.6,3-21.6,9c-6,6-9,13.2-9,21.6c0,8.4,3,15.6,9,21.6c6,6,13.2,9,21.6,9
	c8.4,0,15.6-3,21.6-9c6-6,9-13.2,9-21.6c0-8.4-3-15.6-9-21.6C191.9,6.8,184.7,3.8,176.2,3.8z"/>
<path fill="#009FE8" d="M217.9,26.8h3.8v5.8c0.7-0.9,1.5-1.9,2.4-2.7c4.5-4.5,9.9-6.7,16.2-6.7c6.4,0,11.8,2.2,16.2,6.7
	c4.5,4.5,6.7,9.9,6.7,16.3c0,6.3-2.2,11.7-6.7,16.2c-4.5,4.5-9.9,6.8-16.2,6.8c-6.3,0-11.8-2.3-16.2-6.8c-0.9-0.9-1.7-1.8-2.4-2.7
	v24h-3.8V26.8z M221.7,42.2v7.9c0.7,3.6,2.4,6.8,5.2,9.5c3.7,3.7,8.2,5.6,13.4,5.6c5.2,0,9.7-1.9,13.4-5.6c3.7-3.7,5.6-8.2,5.6-13.4
	c0-5.2-1.9-9.7-5.6-13.5c-3.7-3.7-8.2-5.6-13.4-5.6c-5.2,0-9.7,1.9-13.4,5.6C224.1,35.4,222.4,38.6,221.7,42.2z"/>
<path fill="#009FE8" d="M281.5,45.9c-3.2-1.7-5.4-3.2-6.6-4.5c-1.9-1.9-2.9-4.3-2.9-7c0-2.7,1-5,2.9-7c1.9-1.9,4.2-2.9,7-2.9
	c2.7,0,5,0.9,6.8,2.7c1.7,1.7,2.6,3.7,2.6,6v0.2l-3.3,1.3c-0.3-2.1-0.9-3.7-2-4.8c-1-1.1-2.4-1.6-4.1-1.6c-1.7,0-3.1,0.6-4.3,1.8
	c-1.2,1.2-1.8,2.6-1.8,4.3c0,1.7,0.6,3.1,1.8,4.3c0.7,0.7,2.2,1.8,4.4,3.2c3.6,1.9,6.1,3.6,7.6,5.2c2.4,2.4,3.6,5.3,3.6,8.6
	c0,3.4-1.2,6.3-3.6,8.7c-2.4,2.4-5.2,3.6-8.6,3.6c-3.4,0-6.2-1.2-8.6-3.6c-2.4-2.4-3.6-5-3.6-7.8l3.7-0.9c0,2.4,0.8,4.5,2.5,6.1
	c1.7,1.7,3.6,2.5,5.9,2.5c2.3,0,4.3-0.8,6-2.5c1.7-1.7,2.5-3.7,2.5-6c0-2.3-0.8-4.3-2.5-5.9C286,48.9,284.2,47.6,281.5,45.9z"/>
<path fill="#009FE8" d="M314.4,0.9c11,0.1,19.6,3.1,25.6,9.2c6.7,6.7,10,14.8,10,24.3c0,9.5-3.3,17.6-10,24.3
	c-6.1,6.1-14.6,9.1-25.6,9.2H302v-67H314.4z M305.8,4.9V64h8.6c9.6,0,17.2-2.7,22.8-8.1c5.9-5.9,8.9-13.1,8.9-21.6
	c0-8.4-3-15.6-8.9-21.6c-5.6-5.3-13.2-8-22.8-8H305.8z"/>
<path fill="#009FE8" d="M401.9,67.9h-3.8v-8.4c-0.7,1-1.5,1.9-2.4,2.8c-4.5,4.5-9.9,6.8-16.3,6.8c-6.3,0-11.7-2.3-16.2-6.8
	c-4.5-4.5-6.8-9.9-6.8-16.2c0-6.4,2.3-11.8,6.8-16.3c4.5-4.5,9.9-6.7,16.2-6.7c6.4,0,11.8,2.2,16.3,6.7c0.9,0.9,1.6,1.8,2.4,2.8
	v-5.8h3.8V67.9z M398.1,49.8v-7.4c-0.7-3.7-2.4-6.9-5.2-9.7c-3.7-3.7-8.2-5.6-13.5-5.6c-5.2,0-9.7,1.9-13.4,5.6
	c-3.7,3.7-5.6,8.2-5.6,13.5c0,5.2,1.9,9.7,5.6,13.4c3.7,3.7,8.2,5.5,13.4,5.5c5.2,0,9.7-1.9,13.5-5.6
	C395.7,56.7,397.4,53.5,398.1,49.8z"/>
<path fill="#009FE8" d="M415.9,83.6h-4.2l10.9-23.3l-15.6-33.5h4.2l13.5,28.7l13.5-28.7h4.2L415.9,83.6z"/>
<path fill="#009FE8" d="M458.4,45.9c-3.2-1.7-5.4-3.2-6.6-4.5c-1.9-1.9-2.9-4.3-2.9-7c0-2.7,1-5,2.9-7c1.9-1.9,4.2-2.9,7-2.9
	c2.7,0,5,0.9,6.8,2.7c1.7,1.7,2.6,3.7,2.6,6v0.2l-3.3,1.3c-0.3-2.1-0.9-3.7-2-4.8c-1-1.1-2.4-1.6-4.1-1.6c-1.7,0-3.1,0.6-4.3,1.8
	c-1.2,1.2-1.8,2.6-1.8,4.3c0,1.7,0.6,3.1,1.8,4.3c0.7,0.7,2.2,1.8,4.4,3.2c3.6,1.9,6.1,3.6,7.6,5.2c2.4,2.4,3.6,5.3,3.6,8.6
	c0,3.4-1.2,6.3-3.6,8.7c-2.4,2.4-5.2,3.6-8.6,3.6c-3.4,0-6.3-1.2-8.6-3.6c-2.4-2.4-3.5-5-3.5-7.8l3.7-0.9c0,2.4,0.8,4.5,2.5,6.1
	c1.7,1.7,3.6,2.5,5.9,2.5s4.3-0.8,6-2.5c1.7-1.7,2.5-3.7,2.5-6c0-2.3-0.8-4.3-2.5-5.9C462.9,48.9,461.1,47.6,458.4,45.9z"/>
<path fill="#0060A4" d="M200.3,93.7v22h-3.1v-22h-5.9V91h14.9v2.7H200.3z"/>
<path fill="#0060A4" d="M224.2,115.7h-3.1V113c-1.2,2.1-3.1,3.2-5.6,3.2c-2.5,0-4.6-0.9-6.3-2.6c-1.7-1.7-2.6-3.8-2.6-6.1
	c0-2.4,0.9-4.4,2.6-6.1c1.7-1.7,3.8-2.6,6.3-2.6c2.5,0,4.4,1,5.6,3.1V100h3.1V115.7z M221.1,108.7v-2.5c-0.2-1.1-0.7-2.1-1.6-2.9
	c-1.2-1.2-2.5-1.7-4-1.7c-1.5,0-2.9,0.6-4,1.7c-1.1,1.1-1.7,2.6-1.7,4.2c0,1.7,0.6,3.1,1.7,4.2c1.1,1.1,2.5,1.7,4,1.7
	c1.5,0,2.9-0.6,4-1.7C220.4,110.8,220.9,109.8,221.1,108.7z"/>
<path fill="#0060A4" d="M230.9,95.6c0.4,0.4,0.6,0.9,0.6,1.4c0,0.5-0.2,1-0.6,1.4c-0.4,0.4-0.9,0.6-1.6,0.6c-0.6,0-1.2-0.2-1.6-0.6
	c-0.4-0.4-0.6-0.9-0.6-1.4c0-0.5,0.2-1,0.6-1.4c0.4-0.4,0.9-0.6,1.6-0.6C229.9,94.9,230.5,95.2,230.9,95.6z M230.8,100v15.7h-3.1
	V100H230.8z"/>
<path fill="#0060A4" d="M234.4,100h3.1v1.8c1.2-2,3.1-3.1,5.6-3.1c2.5,0,4.6,0.9,6.3,2.6c1.7,1.7,2.6,3.8,2.6,6.1
	c0,2.3-0.9,4.4-2.6,6.1c-1.7,1.7-3.8,2.6-6.3,2.6c-2.5,0-4.4-1-5.6-3.1v8.2h-3.1V100z M237.6,106.1v2.6c0.2,1.1,0.7,2.1,1.6,2.9
	c1.1,1.1,2.4,1.7,4,1.7c1.5,0,2.9-0.6,4-1.7c1.1-1.1,1.7-2.5,1.7-4.2c0-1.7-0.6-3.1-1.7-4.2c-1.1-1.1-2.5-1.7-4-1.7
	c-1.5,0-2.9,0.6-4,1.7C238.3,104.1,237.8,105,237.6,106.1z"/>
<path fill="#0060A4" d="M257.1,107.4L257.1,107.4c0,1.7,0.6,3.1,1.7,4.3c1.1,1.1,2.5,1.7,4,1.7c1.5,0,2.9-0.6,4-1.7
	c0.2-0.2,0.5-0.5,0.9-1.1l2.9,1c-0.4,0.7-0.9,1.4-1.5,1.9c-1.7,1.8-3.9,2.6-6.4,2.6c-2.5,0-4.6-0.9-6.3-2.6
	c-1.7-1.7-2.6-3.8-2.6-6.1c0-2.4,0.9-4.4,2.6-6.1c1.7-1.7,3.8-2.6,6.3-2.6c2.5,0,4.6,0.9,6.4,2.6c1.5,1.5,2.3,3.5,2.3,6H257.1z
	 M257.7,104.7H268c-0.7-2.1-2.4-3.2-5.1-3.2C260.2,101.5,258.4,102.6,257.7,104.7z"/>
<path fill="#0060A4" d="M277.2,95.6c0.4,0.4,0.6,0.9,0.6,1.4c0,0.5-0.2,1-0.6,1.4c-0.4,0.4-0.9,0.6-1.6,0.6c-0.6,0-1.2-0.2-1.6-0.6
	c-0.4-0.4-0.6-0.9-0.6-1.4c0-0.5,0.2-1,0.6-1.4c0.4-0.4,0.9-0.6,1.6-0.6C276.3,94.9,276.8,95.2,277.2,95.6z M277.2,100v15.7h-3.1
	V100H277.2z"/>
</svg>
