<?xml version="1.0" encoding="utf-8"?>
<!-- Generator: Adobe Illustrator 15.0.0, SVG Export Plug-In  -->
<!DOCTYPE svg PUBLIC "-//W3C//DTD SVG 1.1//EN" "http://www.w3.org/Graphics/SVG/1.1/DTD/svg11.dtd" [
	<!ENTITY ns_flows "http://ns.adobe.com/Flows/1.0/">
]>
<svg version="1.1"
	 xmlns="http://www.w3.org/2000/svg" xmlns:xlink="http://www.w3.org/1999/xlink" xmlns:a="http://ns.adobe.com/AdobeSVGViewerExtensions/3.0/"
	 x="0px" y="0px" width="475px" height="122px" viewBox="0 0 475 122" overflow="visible" enable-background="new 0 0 475 122"
	 xml:space="preserve">
<defs>
</defs>
<path fill="#FFFFFF" d="M12.536,0.957c11.13,0.062,19.762,3.174,25.886,9.33c6.765,6.795,10.146,14.963,10.146,24.498
	c0,9.602-3.381,17.782-10.146,24.547c-6.124,6.125-14.756,9.219-25.886,9.284H0V0.957H12.536z M3.827,4.928v59.764h8.66
	c9.731,0,17.405-2.709,23.021-8.137c5.996-5.994,8.995-13.252,8.995-21.77c0-8.484-2.999-15.742-8.995-21.77
	c-5.615-5.393-13.29-8.088-23.021-8.088H3.827z"/>
<path fill="#FFFFFF" d="M58.184,44.451c-0.095,0.67-0.143,1.387-0.143,2.154c0,5.294,1.871,9.807,5.62,13.541
	c3.749,3.729,8.269,5.596,13.567,5.596c5.295,0,9.822-1.882,13.59-5.644c0.636-0.64,1.241-1.308,1.817-2.01l4.065,1.433
	c-0.477,0.801-1.482,1.945-3.013,3.446c-4.531,4.564-10.019,6.843-16.459,6.843c-6.381,0-11.843-2.273-16.388-6.818
	c-4.545-4.548-6.819-10.008-6.819-16.387c0-6.443,2.274-11.932,6.819-16.461s10.006-6.794,16.388-6.794
	c6.44,0,11.929,2.265,16.459,6.794c3.987,4.018,5.981,8.789,5.981,14.307H58.184z M58.901,40.576h36.462
	c-0.896-2.904-2.409-5.425-4.545-7.56c-3.769-3.763-8.295-5.647-13.59-5.647c-5.298,0-9.825,1.885-13.59,5.647
	C61.404,35.282,59.825,37.801,58.901,40.576z"/>
<path fill="#FFFFFF" d="M140.34,27.083l-18.562,41.533h-2.009l-18.375-41.533h4.449l14.928,34.593l15.12-34.593H140.34z"/>
<path fill="#FFFFFF" d="M202.569,10.166c6.78,6.778,10.168,14.955,10.168,24.523c0,9.602-3.388,17.793-10.168,24.57
	c-6.783,6.779-14.967,10.168-24.571,10.168c-9.571,0-17.744-3.389-24.52-10.168c-6.779-6.777-10.169-14.969-10.169-24.57
	c0-9.568,3.391-17.745,10.169-24.523C160.254,3.389,168.427,0,177.998,0C187.602,0,195.787,3.389,202.569,10.166z M177.998,3.875
	c-8.483,0-15.742,3.016-21.77,9.045c-6.031,6.025-9.044,13.285-9.044,21.77c0,8.516,3.014,15.789,9.044,21.816
	c6.028,6.031,13.287,9.049,21.77,9.049c8.518,0,15.793-3.018,21.821-9.049c6.028-6.027,9.042-13.301,9.042-21.816
	c0-8.484-3.014-15.744-9.042-21.77C193.791,6.891,186.516,3.875,177.998,3.875z"/>
<path fill="#FFFFFF" d="M220.104,27.083h3.827v5.837c0.702-0.955,1.5-1.883,2.392-2.775c4.527-4.498,10.001-6.748,16.408-6.748
	c6.411,0,11.881,2.258,16.409,6.771c4.531,4.516,6.797,9.994,6.797,16.438c0,6.379-2.266,11.839-6.797,16.387
	c-4.528,4.545-9.998,6.818-16.409,6.818c-6.406,0-11.88-2.278-16.408-6.843c-0.892-0.892-1.69-1.816-2.392-2.773v24.258h-3.827
	V27.083z M223.931,42.634v7.94c0.702,3.639,2.441,6.827,5.215,9.572c3.761,3.764,8.292,5.645,13.584,5.645
	c5.293,0,9.815-1.873,13.564-5.622c3.747-3.747,5.622-8.27,5.622-13.563c0-5.297-1.875-9.823-5.622-13.589
	c-3.749-3.763-8.271-5.647-13.564-5.647c-5.292,0-9.823,1.885-13.584,5.647C226.372,35.791,224.633,38.998,223.931,42.634z"/>
<path fill="#FFFFFF" d="M284.313,46.317c-3.224-1.755-5.46-3.253-6.702-4.499c-1.948-1.943-2.919-4.292-2.919-7.033
	c0-2.744,0.971-5.096,2.919-7.059c1.944-1.959,4.29-2.939,7.037-2.939c2.742,0,5.021,0.904,6.842,2.725
	c1.752,1.756,2.629,3.765,2.629,6.029v0.191l-3.301,1.34c-0.288-2.137-0.956-3.748-2.01-4.835c-1.054-1.083-2.438-1.624-4.16-1.624
	c-1.69,0-3.146,0.604-4.355,1.818c-1.218,1.211-1.818,2.662-1.818,4.354c0,1.693,0.601,3.141,1.818,4.355
	c0.703,0.734,2.183,1.816,4.45,3.254c3.603,1.947,6.172,3.684,7.7,5.213c2.394,2.428,3.591,5.312,3.591,8.662
	c0,3.443-1.197,6.371-3.591,8.78c-2.392,2.411-5.294,3.61-8.708,3.61c-3.412,0-6.314-1.199-8.708-3.61
	c-2.392-2.409-3.587-5.049-3.587-7.921l3.779-0.955c0,2.457,0.84,4.523,2.513,6.199c1.673,1.67,3.678,2.51,6.003,2.51
	c2.329,0,4.338-0.84,6.03-2.51c1.691-1.676,2.537-3.711,2.537-6.104c0-2.328-0.846-4.32-2.537-5.98
	C288.873,49.395,287.056,48.074,284.313,46.317z"/>
<path fill="#FFFFFF" d="M317.52,0.957c11.131,0.062,19.759,3.174,25.885,9.33c6.761,6.795,10.143,14.963,10.143,24.498
	c0,9.602-3.382,17.782-10.143,24.547c-6.126,6.125-14.754,9.219-25.885,9.284h-12.537V0.957H317.52z M308.812,4.928v59.764h8.659
	c9.73,0,17.4-2.709,23.013-8.137c5.997-5.994,8.996-13.252,8.996-21.77c0-8.484-2.999-15.742-8.996-21.77
	c-5.612-5.393-13.282-8.088-23.013-8.088H308.812z"/>
<path fill="#FFFFFF" d="M405.942,68.616h-3.827v-8.47c-0.733,0.99-1.531,1.93-2.392,2.821c-4.532,4.564-10.02,6.843-16.46,6.843
	c-6.38,0-11.846-2.273-16.39-6.818c-4.547-4.548-6.822-10.008-6.822-16.387c0-6.443,2.275-11.932,6.822-16.461
	c4.544-4.529,10.01-6.794,16.39-6.794c6.44,0,11.928,2.265,16.46,6.794c0.86,0.893,1.658,1.834,2.392,2.822v-5.884h3.827V68.616z
	 M402.115,50.338v-7.514c-0.702-3.732-2.459-7-5.263-9.808c-3.766-3.763-8.291-5.647-13.589-5.647
	c-5.297,0-9.819,1.885-13.566,5.647c-3.748,3.766-5.62,8.292-5.62,13.589c0,5.294,1.872,9.807,5.62,13.541
	c3.747,3.729,8.27,5.596,13.566,5.596c5.298,0,9.823-1.882,13.589-5.644C399.656,57.293,401.413,54.037,402.115,50.338z"/>
<path fill="#FFFFFF" d="M420.011,84.406h-4.261l10.957-23.496l-15.79-33.827h4.261l13.634,28.995l13.685-28.995h4.26L420.011,84.406
	z"/>
<path fill="#FFFFFF" d="M462.979,46.317c-3.222-1.755-5.457-3.253-6.697-4.499c-1.952-1.943-2.923-4.292-2.923-7.033
	c0-2.744,0.971-5.096,2.923-7.059c1.94-1.959,4.287-2.939,7.032-2.939c2.742,0,5.022,0.904,6.842,2.725
	c1.751,1.756,2.631,3.765,2.631,6.029v0.191l-3.301,1.34c-0.29-2.137-0.959-3.748-2.011-4.835c-1.054-1.083-2.438-1.624-4.161-1.624
	c-1.69,0-3.144,0.604-4.355,1.818c-1.215,1.211-1.816,2.662-1.816,4.354c0,1.693,0.602,3.141,1.816,4.355
	c0.704,0.734,2.186,1.816,4.451,3.254c3.602,1.947,6.174,3.684,7.7,5.213c2.393,2.428,3.593,5.312,3.593,8.662
	c0,3.443-1.2,6.371-3.593,8.78c-2.394,2.411-5.293,3.61-8.706,3.61c-3.412,0-6.316-1.199-8.708-3.61
	c-2.395-2.409-3.587-5.049-3.587-7.921l3.775-0.955c0,2.457,0.841,4.523,2.515,6.199c1.674,1.67,3.677,2.51,6.005,2.51
	c2.326,0,4.336-0.84,6.026-2.51c1.692-1.676,2.538-3.711,2.538-6.104c0-2.328-0.846-4.32-2.538-5.98
	C467.538,49.395,465.721,48.074,462.979,46.317z"/>
<path fill="#FFFFFF" d="M202.349,94.648v22.229h-3.121V94.648h-5.965v-2.721h15.032v2.721H202.349z"/>
<path fill="#FFFFFF" d="M226.467,116.877h-3.139v-2.773c-1.237,2.125-3.121,3.188-5.652,3.188c-2.507,0-4.632-0.867-6.372-2.609
	c-1.739-1.74-2.61-3.795-2.61-6.162c0-2.391,0.871-4.457,2.61-6.189c1.74-1.734,3.865-2.602,6.372-2.602
	c2.531,0,4.415,1.053,5.652,3.156v-1.855h3.139V116.877z M223.328,109.766v-2.53c-0.219-1.144-0.745-2.132-1.577-2.964
	c-1.168-1.18-2.527-1.768-4.075-1.768c-1.561,0-2.914,0.578-4.057,1.73c-1.145,1.158-1.717,2.585-1.717,4.285
	c0,1.686,0.572,3.102,1.717,4.247c1.144,1.146,2.497,1.718,4.057,1.718c1.548,0,2.906-0.583,4.075-1.75
	C222.583,111.9,223.109,110.912,223.328,109.766z"/>
<path fill="#FFFFFF" d="M233.201,96.512c0.421,0.41,0.632,0.871,0.632,1.379c0,0.531-0.211,1.002-0.632,1.414
	c-0.422,0.411-0.951,0.615-1.587,0.615c-0.657,0-1.194-0.204-1.61-0.615c-0.415-0.412-0.623-0.883-0.623-1.414
	c0-0.508,0.208-0.969,0.623-1.379c0.417-0.41,0.954-0.613,1.61-0.613C232.25,95.898,232.779,96.102,233.201,96.512z
	 M233.158,101.029v15.848h-3.12v-15.848H233.158z"/>
<path fill="#FFFFFF" d="M236.795,101.029h3.136v1.818c1.236-2.066,3.115-3.104,5.633-3.104c2.52,0,4.646,0.865,6.382,2.596
	c1.735,1.726,2.601,3.789,2.601,6.18c0,2.367-0.865,4.422-2.601,6.162c-1.735,1.742-3.862,2.609-6.382,2.609
	c-2.518,0-4.396-1.045-5.633-3.137v8.236h-3.136V101.029z M239.932,107.186v2.666c0.209,1.123,0.746,2.111,1.612,2.969
	c1.132,1.119,2.473,1.682,4.021,1.682c1.551,0,2.898-0.576,4.05-1.726c1.15-1.151,1.726-2.571,1.726-4.257
	c0-1.7-0.575-3.127-1.726-4.285c-1.151-1.152-2.499-1.73-4.05-1.73c-1.548,0-2.912,0.588-4.089,1.768
	C240.656,105.092,240.141,106.062,239.932,107.186z"/>
<path fill="#FFFFFF" d="M259.697,108.469v0.051c0,1.686,0.572,3.102,1.718,4.247c1.143,1.146,2.495,1.718,4.054,1.718
	c1.552,0,2.909-0.583,4.076-1.75c0.163-0.165,0.474-0.527,0.937-1.094l2.948,1.039c-0.44,0.742-0.949,1.393-1.525,1.959
	c-1.757,1.77-3.902,2.652-6.436,2.652c-2.507,0-4.631-0.867-6.371-2.609c-1.737-1.74-2.607-3.795-2.607-6.162
	c0-2.391,0.87-4.457,2.607-6.189c1.74-1.734,3.864-2.602,6.371-2.602c2.533,0,4.679,0.879,6.436,2.635
	c1.513,1.525,2.27,3.561,2.27,6.105H259.697z M260.253,105.729h10.385c-0.74-2.152-2.462-3.225-5.169-3.225
	C262.756,102.504,261.015,103.576,260.253,105.729z"/>
<path fill="#FFFFFF" d="M279.99,96.512c0.423,0.41,0.633,0.871,0.633,1.379c0,0.531-0.21,1.002-0.633,1.414
	c-0.421,0.411-0.949,0.615-1.587,0.615c-0.657,0-1.195-0.204-1.611-0.615c-0.416-0.412-0.625-0.883-0.625-1.414
	c0-0.508,0.209-0.969,0.625-1.379s0.954-0.613,1.611-0.613C279.041,95.898,279.569,96.102,279.99,96.512z M279.946,101.029v15.848
	h-3.119v-15.848H279.946z"/>
</svg>
