<?xml version="1.0" encoding="utf-8"?>
<!-- Generator: Adobe Illustrator 15.0.0, SVG Export Plug-In  -->
<!DOCTYPE svg PUBLIC "-//W3C//DTD SVG 1.1//EN" "http://www.w3.org/Graphics/SVG/1.1/DTD/svg11.dtd" [
	<!ENTITY ns_flows "http://ns.adobe.com/Flows/1.0/">
]>
<svg version="1.1"
	 xmlns="http://www.w3.org/2000/svg" xmlns:xlink="http://www.w3.org/1999/xlink" xmlns:a="http://ns.adobe.com/AdobeSVGViewerExtensions/3.0/"
	 x="0px" y="0px" width="411px" height="568px" viewBox="0 0 411 568" overflow="visible" enable-background="new 0 0 411 568"
	 xml:space="preserve">
<defs>
</defs>
<path fill="#A6D3DD" d="M261.339,98.278c0,5.177-4.197,9.374-9.374,9.374h-85.184c-5.177,0-9.374-4.197-9.374-9.374V22.823
	c0-5.177,4.197-9.375,9.374-9.375h85.184c5.177,0,9.374,4.198,9.374,9.375V98.278z"/>
<path fill="#FFFFFF" stroke="#3F494C" stroke-width="3" stroke-miterlimit="10" d="M254.559,92.532c0,5.178-4.196,9.375-9.374,9.375
	h-85.184c-5.177,0-9.374-4.197-9.374-9.375V17.077c0-5.178,4.197-9.375,9.374-9.375h85.184c5.178,0,9.374,4.197,9.374,9.375V92.532z
	"/>
<line fill="none" stroke="#3F494C" stroke-width="3" stroke-miterlimit="10" x1="150.627" y1="27.434" x2="254.559" y2="27.434"/>
<text transform="matrix(1 0 0 1 185.6094 88.8105)" fill="#3F494C" font-family="'Lato-Bold'" font-size="54.8432" letter-spacing="4">4</text>
<path fill="#3F494C" d="M163.882,39.737c-0.052,0.104-0.111,0.176-0.179,0.219c-0.068,0.042-0.149,0.062-0.243,0.062
	s-0.199-0.036-0.316-0.108c-0.117-0.073-0.255-0.153-0.415-0.243c-0.16-0.089-0.346-0.17-0.559-0.242s-0.465-0.109-0.756-0.109
	c-0.263,0-0.491,0.032-0.686,0.096c-0.194,0.062-0.358,0.15-0.492,0.264c-0.133,0.112-0.233,0.247-0.299,0.404
	c-0.065,0.156-0.098,0.329-0.098,0.517c0,0.238,0.067,0.438,0.2,0.598c0.134,0.159,0.311,0.295,0.531,0.407s0.471,0.214,0.752,0.303
	s0.568,0.184,0.861,0.284c0.292,0.102,0.58,0.218,0.861,0.352c0.281,0.134,0.532,0.303,0.752,0.507
	c0.22,0.203,0.397,0.453,0.531,0.748c0.134,0.296,0.201,0.654,0.201,1.076c0,0.459-0.079,0.889-0.236,1.29
	c-0.157,0.4-0.387,0.75-0.689,1.047c-0.302,0.298-0.671,0.532-1.107,0.703c-0.436,0.172-0.935,0.257-1.497,0.257
	c-0.324,0-0.643-0.031-0.957-0.095s-0.615-0.153-0.903-0.271c-0.288-0.117-0.558-0.258-0.809-0.422
	c-0.25-0.164-0.475-0.347-0.671-0.549l0.548-0.906c0.052-0.066,0.114-0.121,0.187-0.166c0.073-0.044,0.153-0.066,0.243-0.066
	c0.117,0,0.244,0.048,0.379,0.145c0.136,0.096,0.296,0.202,0.482,0.319c0.185,0.117,0.403,0.224,0.654,0.32
	c0.25,0.096,0.552,0.144,0.903,0.144c0.539,0,0.956-0.127,1.251-0.383c0.295-0.256,0.443-0.622,0.443-1.101
	c0-0.267-0.067-0.484-0.201-0.653c-0.133-0.169-0.311-0.311-0.531-0.426c-0.22-0.114-0.471-0.212-0.752-0.292
	c-0.281-0.079-0.567-0.166-0.858-0.26s-0.577-0.206-0.857-0.337c-0.281-0.132-0.532-0.303-0.752-0.514s-0.397-0.475-0.531-0.791
	c-0.134-0.316-0.201-0.706-0.201-1.171c0-0.37,0.074-0.73,0.222-1.082s0.363-0.663,0.647-0.936c0.283-0.271,0.631-0.489,1.044-0.653
	c0.412-0.164,0.883-0.246,1.413-0.246c0.6,0,1.153,0.094,1.659,0.281s0.938,0.45,1.293,0.787L163.882,39.737z"/>
<path fill="#3F494C" d="M173.443,37.889v1.505h-4.506v2.818h3.55v1.456h-3.55v2.875h4.506v1.512h-6.412V37.889H173.443z"/>
<path fill="#3F494C" d="M178.091,44.477v3.578H176.2V37.889h3.311c0.68,0,1.268,0.08,1.765,0.239
	c0.497,0.159,0.907,0.382,1.23,0.668c0.323,0.285,0.562,0.628,0.717,1.026c0.154,0.398,0.232,0.834,0.232,1.308
	c0,0.492-0.082,0.943-0.246,1.354s-0.41,0.763-0.738,1.058s-0.738,0.525-1.23,0.689s-1.068,0.246-1.729,0.246H178.091z M178.091,43
	h1.42c0.347,0,0.649-0.044,0.907-0.13c0.258-0.087,0.471-0.211,0.64-0.373s0.295-0.358,0.38-0.591
	c0.084-0.231,0.126-0.49,0.126-0.776c0-0.271-0.042-0.518-0.126-0.738c-0.084-0.221-0.211-0.408-0.38-0.562s-0.382-0.273-0.64-0.355
	s-0.56-0.123-0.907-0.123h-1.42V43z"/>
<path fill="#FF8C1D" stroke="#3F494C" stroke-width="3" stroke-miterlimit="10" d="M254.559,30.869V17.077
	c0-5.178-4.196-9.375-9.374-9.375h-85.184c-5.177,0-9.374,4.197-9.374,9.375v13.792H254.559z"/>
<circle fill="#FFFFFF" stroke="#3F494C" stroke-width="3" stroke-miterlimit="10" cx="174.001" cy="19.093" r="5.644"/>
<path fill="#FFFFFF" stroke="#3F494C" stroke-width="3" stroke-miterlimit="10" d="M176.813,18.06c0,1.552-1.259,2.811-2.812,2.811
	l0,0c-1.553,0-2.812-1.259-2.812-2.811V4.31c0-1.553,1.259-2.81,2.812-2.81l0,0c1.554,0,2.812,1.256,2.812,2.81V18.06z"/>
<path fill="#FFFFFF" stroke="#3F494C" stroke-width="3" stroke-miterlimit="10" d="M236.828,18.779c0,2.945-2.385,5.33-5.33,5.33
	c-2.943,0-5.33-2.385-5.33-5.33c0-2.94,2.387-5.331,5.33-5.331C234.443,13.448,236.828,15.838,236.828,18.779z"/>
<path fill="#FFFFFF" stroke="#3F494C" stroke-width="3" stroke-miterlimit="10" d="M234.31,18.06c0,1.552-1.26,2.811-2.812,2.811
	l0,0c-1.553,0-2.812-1.259-2.812-2.811V4.31c0-1.553,1.26-2.81,2.812-2.81l0,0c1.553,0,2.812,1.256,2.812,2.81V18.06z"/>
<ellipse fill="#EDEDED" cx="269.139" cy="326.527" rx="36.589" ry="19.701"/>
<circle fill="#A6D3DD" cx="291.868" cy="170.206" r="5.562"/>
<circle fill="#A6D3DD" cx="282.206" cy="186.644" r="4.871"/>
<path fill="#A6D3DD" d="M312.953,134.415h-32.938c-2.885,0-5.224,2.339-5.224,5.225v16.187c0,2.885,2.339,5.224,5.224,5.224h32.938
	c2.885,0,5.225-2.339,5.225-5.224V139.64C318.177,136.753,315.837,134.415,312.953,134.415z"/>
<path fill="#EDF6F7" stroke="#3F494C" stroke-width="3" stroke-miterlimit="10" d="M287.01,249.08
	c0-6.927-5.614-12.542-12.542-12.542h-10.66c-6.926,0-12.541,5.614-12.541,12.542v44.626c0,0.013,0.002,0.026,0.002,0.042
	c0,0.014-0.002,0.027-0.002,0.042v31.874c0,3.29,2.668,5.957,5.957,5.957c3.291,0,5.957-2.667,5.957-5.957v-19.449
	c0.21,0.01,0.416,0.031,0.627,0.031h10.66c0.212,0,0.418-0.021,0.627-0.031v20.408c0,3.289,2.668,5.957,5.958,5.957
	s5.957-2.668,5.957-5.957v-29.988c0-0.422-0.045-0.834-0.128-1.229c0.075-0.558,0.128-1.122,0.128-1.699V249.08z"/>
<path fill="#FFFFFF" stroke="#3F494C" stroke-width="3" stroke-miterlimit="10" d="M309.025,130.705h-32.938
	c-2.885,0-5.224,2.339-5.224,5.225v16.188c0,2.884,2.339,5.223,5.224,5.223h32.938c2.885,0,5.225-2.339,5.225-5.223V135.93
	C314.25,133.043,311.91,130.705,309.025,130.705z"/>
<circle fill="#FFFFFF" stroke="#3F494C" stroke-width="3" stroke-miterlimit="10" cx="280.314" cy="144.023" r="3.373"/>
<circle fill="#FFFFFF" stroke="#3F494C" stroke-width="3" stroke-miterlimit="10" cx="293.154" cy="144.023" r="3.373"/>
<circle fill="#FFFFFF" stroke="#3F494C" stroke-width="3" stroke-miterlimit="10" cx="305.992" cy="144.023" r="3.373"/>
<circle fill="#FFFFFF" stroke="#3F494C" stroke-width="3" stroke-miterlimit="10" cx="289.574" cy="168.676" r="4.875"/>
<circle fill="#FFFFFF" stroke="#3F494C" stroke-width="3" stroke-miterlimit="10" cx="281.176" cy="185.398" r="3.625"/>
<path fill="#EDF6F7" stroke="#3F494C" stroke-width="3" stroke-miterlimit="10" d="M278.335,273.804
	c-0.203-3.022-2.822-5.309-5.845-5.102l-19.814,1.347l3.836-19.405c0.587-2.972-1.347-5.858-4.318-6.448
	c-2.973-0.586-5.858,1.348-6.447,4.321l-5.043,25.511c-0.284,0.731-0.421,1.528-0.364,2.36c0.033,0.494,0.137,0.965,0.289,1.411
	c0.004,0.009,0.006,0.016,0.011,0.028c0.028,0.083,0.058,0.167,0.091,0.248c0.64,1.731,2.134,3.102,4.078,3.485
	c0.951,0.187,28.427-1.911,28.427-1.911C276.258,279.443,278.542,276.827,278.335,273.804z"/>
<circle fill="#FFFFFF" stroke="#3F494C" stroke-width="3" stroke-miterlimit="10" cx="269.139" cy="221.75" r="24.612"/>
<circle fill="#FFFFFF" stroke="#3F494C" stroke-width="3" stroke-miterlimit="10" cx="257.501" cy="227.985" r="6.234"/>
<circle fill="#FFFFFF" stroke="#3F494C" stroke-width="3" stroke-miterlimit="10" cx="276.663" cy="227.985" r="6.234"/>
<line fill="none" stroke="#3F494C" stroke-width="3" stroke-miterlimit="10" x1="263.736" y1="227.985" x2="270.428" y2="227.985"/>
<line fill="none" stroke="#3F494C" stroke-width="3" stroke-miterlimit="10" x1="282.897" y1="227.985" x2="293.751" y2="220.293"/>
<line fill="none" stroke="#3F494C" stroke-width="3" stroke-miterlimit="10" x1="251.267" y1="227.985" x2="244.544" y2="222.463"/>
<path fill="#FFFFFF" stroke="#3F494C" stroke-width="3" stroke-linecap="round" stroke-linejoin="round" stroke-miterlimit="10" d="
	M269.138,192.127c-13.28,0-24.291,10.95-26.343,25.29h35.438h2.163l2.501-6.751l3.604,6.751h8.981
	C293.429,203.078,282.419,192.127,269.138,192.127z"/>
<path fill="#EDF6F7" stroke="#3F494C" stroke-width="3" stroke-miterlimit="10" d="M290.55,244.036
	c-2.645-1.095-5.676,0.163-6.768,2.809l-3.558,8.482l-8.562-12.97c-1.576-2.385-4.789-3.043-7.178-1.468
	c-2.389,1.577-3.047,4.792-1.469,7.18l13.529,20.495c1.578,2.387,4.791,3.044,7.178,1.469c0.275-0.182,0.521-0.39,0.749-0.61
	c0.907-0.552,1.66-1.374,2.097-2.43l6.787-16.188C294.449,248.16,293.195,245.129,290.55,244.036z"/>
<ellipse transform="matrix(0.996 -0.0889 0.0889 0.996 -33.0161 5.0313)" fill="#EDEDED" cx="39.988" cy="373.254" rx="36.589" ry="19.701"/>
<path fill="#A6D3DD" d="M67.457,175.447H20.841c-4.083,0-7.393,3.31-7.393,7.394v22.909c0,4.084,3.31,7.394,7.393,7.394H34.74
	l9.409,9.409l9.409-9.409h13.899c4.083,0,7.393-3.31,7.393-7.394V182.84C74.85,178.757,71.54,175.447,67.457,175.447z"/>
<path fill="#FFFFFF" stroke="#3F494C" stroke-width="3" stroke-miterlimit="10" d="M62.833,171.368H16.216
	c-4.083,0-7.393,3.31-7.393,7.393v22.91c0,4.084,3.31,7.394,7.393,7.394h13.899l9.409,9.409l9.409-9.409h13.899
	c4.083,0,7.393-3.31,7.393-7.394v-22.91C70.226,174.678,66.916,171.368,62.833,171.368z"/>
<circle fill="#FFFFFF" stroke="#3F494C" stroke-width="3" stroke-miterlimit="10" cx="22.881" cy="191.295" r="3.624"/>
<circle fill="#FFFFFF" stroke="#3F494C" stroke-width="3" stroke-miterlimit="10" cx="39.525" cy="191.295" r="3.624"/>
<circle fill="#FFFFFF" stroke="#3F494C" stroke-width="3" stroke-miterlimit="10" cx="56.168" cy="191.295" r="3.625"/>
<path fill="#FF8C1D" stroke="#3F494C" stroke-width="3" stroke-miterlimit="10" d="M55.146,283.353
	c2.908-0.853,5.956,0.815,6.807,3.724l5.58,19.06l16.886-10.303c2.586-1.578,5.963-0.76,7.542,1.826
	c1.578,2.586,0.76,5.963-1.827,7.541l-22.2,13.545c-0.586,0.52-1.288,0.924-2.088,1.159c-0.475,0.139-0.953,0.203-1.425,0.214
	c-0.01,0-0.02,0-0.029,0c-0.088,0.003-0.176,0.004-0.264,0.002c-1.846-0.004-3.648-0.932-4.68-2.624
	c-0.505-0.827-0.762-1.735-0.797-2.641l-7.23-24.696C50.571,287.252,52.238,284.204,55.146,283.353z"/>
<path fill="#FF8C1D" stroke="#3F494C" stroke-width="3" stroke-miterlimit="10" d="M22.117,290.409
	c0-6.927,5.615-12.542,12.541-12.542h10.66c6.926,0,12.541,5.615,12.541,12.542v44.626c0,0.014-0.002,0.028-0.002,0.043
	c0,0.012,0.002,0.027,0.002,0.041v31.875c0,3.289-2.667,5.957-5.957,5.957s-5.957-2.668-5.957-5.957v-19.447
	c-0.209,0.009-0.416,0.03-0.627,0.03h-10.66c-0.211,0-0.418-0.021-0.627-0.03v28.564c0,3.291-2.667,5.957-5.957,5.957
	s-5.957-2.666-5.957-5.957v-38.148c0-0.421,0.045-0.832,0.128-1.229c-0.076-0.557-0.128-1.121-0.128-1.699V290.409z"/>
<circle fill="#FFFFFF" stroke="#3F494C" stroke-width="3" stroke-miterlimit="10" cx="39.988" cy="263.08" r="24.612"/>
<path fill="#FF8C1D" stroke="#3F494C" stroke-width="3" stroke-miterlimit="10" d="M25.165,331.811
	c2.241-1.779,2.615-5.039,0.837-7.279L13.56,308.844l14.282-15.164c1.962-2.084,1.864-5.362-0.218-7.324
	c-2.084-1.961-5.363-1.862-7.324,0.22L3.463,304.451c-2.244,1.779-2.619,5.038-0.84,7.279l15.261,19.24
	C19.663,333.213,22.921,333.589,25.165,331.811z"/>
<path fill="#FFFFFF" stroke="#3F494C" stroke-width="3" stroke-miterlimit="10" d="M54.654,234.45H30.935
	c-6.954,0-12.604,4.474-12.847,10.062c-0.552-0.15-1.13-0.237-1.729-0.237c-3.632,0-6.577,2.944-6.577,6.577v11.05
	c0,3.633,2.945,6.578,6.577,6.578c3.633,0,6.578-2.945,6.578-6.578v-8.855c2.197,1.416,4.973,2.267,7.999,2.267h23.719
	c7.108,0,12.87-4.669,12.87-10.432C67.523,239.122,61.762,234.45,54.654,234.45z"/>
<ellipse fill="#EDEDED" cx="162.217" cy="326.627" rx="36.589" ry="19.701"/>
<path fill="#A6D3DD" d="M189.728,135.391h-46.616c-4.083,0-7.393,3.311-7.393,7.394v22.909c0,4.084,3.31,7.394,7.393,7.394h13.899
	l9.409,9.409l9.409-9.409h13.899c4.083,0,7.393-3.31,7.393-7.394v-22.909C197.121,138.702,193.811,135.391,189.728,135.391z"/>
<path fill="#FFFFFF" stroke="#3F494C" stroke-width="3" stroke-miterlimit="10" d="M185.103,131.312h-46.616
	c-4.083,0-7.393,3.31-7.393,7.393v22.91c0,4.084,3.31,7.393,7.393,7.393h13.899l9.409,9.409l9.409-9.409h13.899
	c4.083,0,7.393-3.309,7.393-7.393v-22.91C192.496,134.622,189.186,131.312,185.103,131.312z"/>
<circle fill="#FFFFFF" stroke="#3F494C" stroke-width="3" stroke-miterlimit="10" cx="145.152" cy="151.239" r="3.624"/>
<circle fill="#FFFFFF" stroke="#3F494C" stroke-width="3" stroke-miterlimit="10" cx="161.795" cy="151.239" r="3.624"/>
<circle fill="#FFFFFF" stroke="#3F494C" stroke-width="3" stroke-miterlimit="10" cx="178.438" cy="151.239" r="3.625"/>
<path fill="#A6D3DD" stroke="#3F494C" stroke-width="3" stroke-miterlimit="10" d="M152.705,281.394
	c1.223-2.4,0.267-5.338-2.135-6.561l-15.736-8.01l11.78-13.06c1.805-2.002,1.646-5.087-0.354-6.891
	c-2-1.805-5.086-1.646-6.891,0.354l-15.487,17.171c-0.549,0.426-1.019,0.972-1.355,1.633c-0.199,0.391-0.335,0.798-0.422,1.209
	c-0.001,0.009-0.003,0.016-0.005,0.026c-0.016,0.078-0.032,0.154-0.044,0.229c-0.301,1.615,0.214,3.343,1.523,4.522
	c0.64,0.578,1.392,0.951,2.175,1.13l20.391,10.38C148.545,284.75,151.482,283.795,152.705,281.394z"/>
<path fill="#A6D3DD" stroke="#3F494C" stroke-width="3" stroke-miterlimit="10" d="M180.088,248.901
	c0-6.925-5.615-12.541-12.542-12.541h-10.66c-6.926,0-12.541,5.616-12.541,12.541v44.628c0,0.014,0.002,0.026,0.002,0.041
	c0,0.014-0.002,0.027-0.002,0.043v31.873c0,3.29,2.667,5.957,5.957,5.957s5.957-2.667,5.957-5.957v-19.448
	c0.209,0.009,0.416,0.031,0.627,0.031h10.66c0.211,0,0.418-0.022,0.627-0.031v20.407c0,3.29,2.667,5.957,5.957,5.957
	c3.29,0,5.958-2.667,5.958-5.957v-29.989c0-0.421-0.045-0.831-0.128-1.228c0.076-0.559,0.128-1.122,0.128-1.699V248.901z"/>
<circle fill="#FFFFFF" stroke="#3F494C" stroke-width="3" stroke-miterlimit="10" cx="162.216" cy="221.572" r="24.612"/>
<path fill="#FFFFFF" stroke="#3F494C" stroke-width="3" stroke-linejoin="round" stroke-miterlimit="10" d="M162.12,193.23
	c-13.506,0-24.854,9.633-28.071,22.671c0,3.78,2.883,6.842,6.44,6.842c2.24,0,4.212-1.217,5.366-3.062
	c1.153,1.845,3.125,3.062,5.365,3.062c2.241,0,4.212-1.217,5.366-3.062c1.153,1.845,3.125,3.062,5.365,3.062
	c2.241,0,4.212-1.217,5.365-3.062c1.155,1.845,3.125,3.062,5.367,3.062c2.24,0,4.212-1.217,5.365-3.062
	c1.154,1.845,3.125,3.062,5.366,3.062c3.556,0,6.777-3.062,6.777-6.842l0,0C186.975,202.863,175.627,193.23,162.12,193.23z"/>
<path fill="#A6D3DD" stroke="#3F494C" stroke-width="3" stroke-miterlimit="10" d="M193.097,294.339
	c0.487,2.818-1.402,5.5-4.222,5.987l0,0c-2.82,0.488-5.5-1.4-5.988-4.222l-7.599-43.916c-0.488-2.82,1.402-5.502,4.222-5.989l0,0
	c2.82-0.487,5.5,1.401,5.988,4.221L193.097,294.339z"/>
<ellipse fill="#EDEDED" cx="262.159" cy="548.434" rx="36.589" ry="19.701"/>
<path fill="#FF8C1D" stroke="#3F494C" stroke-width="3" stroke-miterlimit="10" d="M260.318,498.776
	c0.684-2.605-0.877-5.272-3.482-5.954l-17.083-4.473l8.726-15.27c1.337-2.342,0.525-5.322-1.814-6.658
	c-2.338-1.337-5.32-0.523-6.656,1.814l-11.473,20.078c-0.445,0.533-0.788,1.167-0.977,1.885c-0.111,0.425-0.156,0.852-0.154,1.271
	c0,0.011,0,0.019,0,0.028c0.001,0.078,0.003,0.155,0.006,0.232c0.051,1.643,0.922,3.221,2.452,4.094
	c0.748,0.428,1.562,0.633,2.366,0.641l22.135,5.796C256.97,502.943,259.636,501.383,260.318,498.776z"/>
<path fill="#FF8C1D" stroke="#3F494C" stroke-width="3" stroke-miterlimit="10" d="M280.03,469.881
	c0-6.926-5.614-12.541-12.542-12.541h-10.66c-6.926,0-12.541,5.615-12.541,12.541v44.627c0,0.014,0.002,0.026,0.002,0.041
	c0,0.013-0.002,0.027-0.002,0.043v31.873c0,3.291,2.668,5.957,5.957,5.957c3.291,0,5.957-2.666,5.957-5.957v-19.448
	c0.209,0.01,0.416,0.031,0.627,0.031h10.66c0.212,0,0.418-0.021,0.627-0.031v20.407c0,3.291,2.668,5.957,5.957,5.957
	c3.291,0,5.958-2.666,5.958-5.957v-29.989c0-0.422-0.046-0.831-0.128-1.228c0.075-0.559,0.128-1.122,0.128-1.699V469.881z"/>
<path fill="#FF8C1D" stroke="#3F494C" stroke-width="3" stroke-miterlimit="10" d="M286.814,476.127
	c-0.643,2.787-3.424,4.527-6.213,3.884l0,0c-2.788-0.644-4.527-3.423-3.885-6.212l10.01-43.431c0.643-2.788,3.424-4.528,6.213-3.884
	l0,0c2.788,0.643,4.527,3.422,3.885,6.211L286.814,476.127z"/>
<circle fill="#FFFFFF" stroke="#3F494C" stroke-width="3" stroke-miterlimit="10" cx="262.159" cy="442.551" r="24.612"/>
<polyline fill="#FFFFFF" stroke="#3F494C" stroke-width="3" stroke-linejoin="round" stroke-miterlimit="10" points="
	243.166,458.205 248.076,453.248 252.257,458.205 258.209,453.248 262.158,458.623 265.959,453.248 269.834,458.623 
	274.459,453.248 276.834,458.623 280.959,453.248 282.601,456.258 "/>
<ellipse transform="matrix(0.9917 0.1284 -0.1284 0.9917 52.3913 -44.8741)" fill="#EDEDED" cx="374.144" cy="383.799" rx="36.589" ry="19.702"/>
<path fill="#ACAEAF" stroke="#3F494C" stroke-width="3" stroke-miterlimit="10" d="M366.061,337.141
	c2.241-1.779,2.614-5.039,0.837-7.279l-12.441-15.686l14.281-15.166c1.963-2.084,1.864-5.362-0.219-7.324
	c-2.084-1.961-5.363-1.861-7.324,0.22l-16.836,17.876c-2.244,1.779-2.619,5.037-0.84,7.279l15.262,19.24
	C360.558,338.543,363.817,338.918,366.061,337.141z"/>
<path fill="#ACAEAF" stroke="#3F494C" stroke-width="3" stroke-miterlimit="10" d="M392.015,301.637
	c0-6.928-5.615-12.541-12.541-12.541h-10.66c-6.928,0-12.542,5.613-12.542,12.541v44.625c0,0.016,0.003,0.029,0.003,0.043
	c-0.001,0.014-0.003,0.027-0.003,0.041v31.875c0,3.291,2.667,5.957,5.957,5.957s5.958-2.666,5.958-5.957v-19.448
	c0.209,0.011,0.414,0.032,0.627,0.032h10.66c0.211,0,0.417-0.021,0.627-0.032v28.567c0,3.289,2.666,5.957,5.957,5.957
	c3.289,0,5.957-2.668,5.957-5.957v-38.148c0-0.422-0.045-0.832-0.129-1.229c0.076-0.558,0.129-1.123,0.129-1.701V301.637z"/>
<circle fill="#FFFFFF" stroke="#3F494C" stroke-width="3" stroke-miterlimit="10" cx="374.143" cy="274.308" r="24.612"/>
<path fill="#ACAEAF" stroke="#3F494C" stroke-width="3" stroke-miterlimit="10" d="M402.48,344.201
	c0.487,2.818-1.402,5.5-4.223,5.987l0,0c-2.819,0.487-5.5-1.401-5.988-4.222l-7.599-43.916c-0.487-2.82,1.401-5.502,4.222-5.99l0,0
	c2.82-0.486,5.5,1.402,5.988,4.223L402.48,344.201z"/>
<path fill="#FFFFFF" stroke="#3F494C" stroke-width="3" stroke-miterlimit="10" d="M374.144,243.377
	c-15.693,0-28.414,12.724-28.414,28.415c0,2.107,0.236,4.158,0.672,6.137c8.91-1.688,16.135-5.924,19.625-11.418
	c4.175,7.664,15.467,13.156,28.748,13.156c2.342,0,4.619-0.176,6.809-0.5c0.631-2.354,0.973-4.824,0.973-7.375
	C402.556,256.101,389.835,243.377,374.144,243.377z"/>
<path fill="#ACAEAF" stroke="#3F494C" stroke-width="3" stroke-miterlimit="10" d="M146.755,464.172
	c-1.395-2.688-4.708-3.739-7.396-2.342l-17.626,9.15l-4.235-19.321c-0.649-2.959-3.575-4.832-6.535-4.186
	c-2.959,0.65-4.833,3.576-4.184,6.537l5.568,25.401c0.033,0.783,0.225,1.568,0.608,2.309c0.229,0.439,0.512,0.831,0.829,1.179
	c0.008,0.007,0.013,0.012,0.022,0.021c0.06,0.063,0.119,0.13,0.181,0.19c1.279,1.331,3.196,1.991,5.132,1.566
	c0.946-0.209,25.296-13.108,25.296-13.108C147.104,470.172,148.153,466.86,146.755,464.172z"/>
<path fill="#ACAEAF" stroke="#3F494C" stroke-width="3" stroke-miterlimit="10" d="M179.601,514.633
	c0.309,2.845-1.746,5.401-4.591,5.711l0,0c-2.845,0.309-5.401-1.747-5.71-4.592l-4.813-44.309c-0.309-2.844,1.746-5.4,4.591-5.71
	l0,0c2.845-0.31,5.401,1.747,5.71,4.591L179.601,514.633z"/>
<ellipse fill="#EDEDED" cx="151.624" cy="547.914" rx="36.589" ry="19.702"/>
<path fill="#ACAEAF" stroke="#3F494C" stroke-width="3" stroke-miterlimit="10" d="M169.496,470.467
	c0-6.928-5.615-12.541-12.542-12.541h-10.66c-6.926,0-12.541,5.613-12.541,12.541v44.626c0,0.013,0.002,0.027,0.002,0.042
	c0,0.014-0.002,0.026-0.002,0.042v31.874c0,3.289,2.667,5.957,5.957,5.957s5.957-2.668,5.957-5.957v-19.448
	c0.209,0.009,0.416,0.03,0.627,0.03h10.66c0.211,0,0.418-0.021,0.627-0.03v20.407c0,3.289,2.667,5.957,5.958,5.957
	c3.29,0,5.957-2.668,5.957-5.957v-29.988c0-0.422-0.045-0.834-0.128-1.23c0.076-0.557,0.128-1.121,0.128-1.698V470.467z"/>
<circle fill="#FFFFFF" stroke="#3F494C" stroke-width="3" stroke-miterlimit="10" cx="151.624" cy="443.137" r="24.612"/>
<path fill="#FFFFFF" stroke="#3F494C" stroke-width="3" stroke-miterlimit="10" d="M176.236,441.863
	c0-13.592-11.019-24.611-24.612-24.611c-13.593,0-24.611,11.02-24.611,24.611c0,2.121,0,8.739,0,8.739c0,5.522,4.477,10,10,10
	h29.224c5.522,0,10-4.478,10-10C176.236,450.603,176.236,443.984,176.236,441.863z"/>
<path fill="#A6D3DD" d="M172.45,366.873l-40.341,0.211c-3.533,0.018-6.382,2.898-6.364,6.43l0.104,19.826
	c0.019,3.535,2.898,6.384,6.431,6.365l12.029-0.062l8.185,8.1l8.101-8.186l12.027-0.062c3.533-0.019,6.383-2.898,6.365-6.432
	l-0.104-19.826C178.863,369.703,175.983,366.854,172.45,366.873z"/>
<path fill="#FFFFFF" stroke="#3F494C" stroke-width="3" stroke-miterlimit="10" d="M168.296,363.23l-40.341,0.212
	c-3.533,0.019-6.382,2.897-6.364,6.431l0.104,19.826c0.019,3.534,2.897,6.385,6.431,6.365l12.029-0.062l8.185,8.1l8.101-8.186
	l12.027-0.062c3.533-0.019,6.383-2.898,6.364-6.433l-0.104-19.825C174.709,366.062,171.83,363.213,168.296,363.23z"/>
<circle fill="#FFFFFF" stroke="#3F494C" stroke-width="3" stroke-miterlimit="10" cx="133.813" cy="380.657" r="3.137"/>
<circle fill="#FFFFFF" stroke="#3F494C" stroke-width="3" stroke-miterlimit="10" cx="148.217" cy="380.583" r="3.137"/>
<circle fill="#FFFFFF" stroke="#3F494C" stroke-width="3" stroke-miterlimit="10" cx="162.619" cy="380.507" r="3.137"/>
<ellipse transform="matrix(0.9907 0.1359 -0.1359 0.9907 67.8278 -0.53)" fill="#EDEDED" cx="37.797" cy="496.689" rx="36.588" ry="19.702"/>
<path fill="#A6D3DD" stroke="#3F494C" stroke-width="3" stroke-miterlimit="10" d="M54.973,411.099
	c0-6.927-5.615-12.543-12.541-12.543h-10.66c-6.926,0-12.541,5.616-12.541,12.543v44.626c0,0.014,0.002,0.027,0.002,0.041
	s-0.002,0.027-0.002,0.043v31.874c0,3.289,2.667,5.956,5.957,5.956s5.957-2.667,5.957-5.956v-19.448
	c0.209,0.009,0.416,0.03,0.627,0.03h10.66c0.211,0,0.418-0.021,0.627-0.03v28.566c0,3.291,2.667,5.957,5.957,5.957
	c3.29,0,5.957-2.666,5.957-5.957v-38.149c0-0.422-0.045-0.832-0.128-1.228c0.076-0.559,0.128-1.123,0.128-1.699V411.099z"/>
<path fill="#A6D3DD" stroke="#3F494C" stroke-width="3" stroke-miterlimit="10" d="M86.808,421.719
	c-1.448-2.467-4.623-3.293-7.091-1.846l-17.27,10.129l-13.021-16.26c-1.789-2.234-5.048-2.595-7.282-0.807
	c-2.233,1.789-2.594,5.051-0.806,7.283l15.35,19.168c1.448,2.471,4.622,3.297,7.09,1.849l21.182-12.425
	C87.428,427.363,88.255,424.189,86.808,421.719z"/>
<circle fill="#FFFFFF" stroke="#3F494C" stroke-width="3" stroke-miterlimit="10" cx="38.39" cy="380.84" r="24.563"/>
<path fill="#FFFFFF" stroke="#3F494C" stroke-width="3" stroke-miterlimit="10" d="M11.419,371.217
	c2.753-4.792,7.75-7.401,12.36-7.971c1.185-7.138,7.429-16.188,16.788-16.809c11.665-0.773,25.521,15.42,25.52,18.775
	c-0.001,3.354-6.236,13.195-17.899,13.971c-4.61,0.309-9.092-0.301-12.946-1.56c-0.469,2.772-1.47,5.666-3.04,8.396
	c-4.621,8.031-12.561,10.682-17.124,7.943C10.513,391.221,6.798,379.247,11.419,371.217z"/>
<path fill="#A6D3DD" d="M395.13,180.992h-37.996c-4.236,0-7.672,3.435-7.672,7.673v26.133c0,4.236,3.436,7.674,7.672,7.674h9.232
	l9.766,9.763l9.766-9.763h9.232c4.237,0,7.672-3.438,7.672-7.674v-26.133C402.802,184.427,399.368,180.992,395.13,180.992z"/>
<path fill="#FFFFFF" stroke="#3F494C" stroke-width="3" stroke-miterlimit="10" d="M391.477,179.512h-36.611
	c-4.083,0-7.393,3.31-7.393,7.393v25.181c0,4.083,3.31,7.394,7.393,7.394h8.896l9.409,9.407l9.409-9.407h8.896
	c4.083,0,7.394-3.312,7.394-7.394v-25.181C398.871,182.822,395.56,179.512,391.477,179.512z"/>
<path fill="none" stroke="#3F494C" stroke-width="3" stroke-miterlimit="10" d="M373.667,209.708c-0.705,0-1.301,0.237-1.785,0.711
	c-0.485,0.475-0.729,1.059-0.729,1.753c0,0.784,0.251,1.393,0.753,1.828c0.501,0.435,1.089,0.652,1.761,0.652
	c0.65,0,1.225-0.219,1.721-0.661c0.496-0.44,0.744-1.047,0.744-1.819c0-0.694-0.237-1.278-0.711-1.753
	C374.947,209.946,374.363,209.708,373.667,209.708z"/>
<path fill="none" stroke="#3F494C" stroke-width="3" stroke-miterlimit="10" d="M381.134,192.907
	c-0.666-1.015-1.611-1.816-2.836-2.406c-1.224-0.59-2.635-0.885-4.233-0.885c-1.72,0-3.225,0.353-4.515,1.059
	c-1.29,0.705-2.271,1.595-2.943,2.669c-0.673,1.075-1.01,2.137-1.01,3.183c0,0.508,0.213,0.979,0.637,1.415
	c0.425,0.436,0.945,0.653,1.563,0.653c1.048,0,1.759-0.623,2.134-1.868c0.396-1.192,0.881-2.093,1.455-2.705
	c0.572-0.612,1.466-0.918,2.679-0.918c1.036,0,1.882,0.304,2.538,0.909c0.656,0.607,0.984,1.35,0.984,2.232
	c0,0.452-0.107,0.871-0.322,1.257c-0.215,0.387-0.479,0.736-0.794,1.052c-0.313,0.314-0.824,0.779-1.53,1.396
	c-0.805,0.705-1.443,1.314-1.918,1.827c-0.475,0.513-0.854,1.108-1.141,1.786c-0.287,0.678-0.43,1.481-0.43,2.406
	c0,0.739,0.195,1.296,0.586,1.67c0.392,0.375,0.874,0.562,1.447,0.562c1.103,0,1.759-0.573,1.969-1.719
	c0.121-0.541,0.212-0.918,0.272-1.133c0.061-0.215,0.146-0.429,0.257-0.646c0.109-0.215,0.277-0.452,0.504-0.711
	c0.226-0.259,0.526-0.559,0.901-0.901c1.356-1.212,2.296-2.075,2.819-2.587c0.523-0.513,0.977-1.123,1.356-1.827
	c0.38-0.707,0.57-1.528,0.57-2.464C382.135,195.023,381.802,193.922,381.134,192.907z"/>
<ellipse transform="matrix(-0.9907 0.1359 -0.1359 -0.9907 783.1848 937.4984)" fill="#EDEDED" cx="359.604" cy="495.473" rx="36.589" ry="19.702"/>
<path fill="#009FE8" stroke="#3F494C" stroke-width="3" stroke-miterlimit="10" d="M354.216,397.674
	c0.279,2.846,2.814,4.93,5.662,4.649l0,0c2.848-0.278,4.93-2.812,4.651-5.661l-4.347-44.355c-0.279-2.85-2.814-4.932-5.662-4.652
	l0,0c-2.848,0.278-4.93,2.814-4.65,5.662L354.216,397.674z"/>
<path fill="#009FE8" stroke="#3F494C" stroke-width="3" stroke-miterlimit="10" d="M342.427,409.882
	c0-6.929,5.615-12.544,12.541-12.544h10.66c6.926,0,12.541,5.615,12.541,12.544v44.625c0,0.013-0.002,0.026-0.002,0.042
	c0,0.014,0.002,0.027,0.002,0.042v31.874c0,3.289-2.667,5.957-5.957,5.957s-5.957-2.668-5.957-5.957v-19.448
	c-0.209,0.009-0.416,0.031-0.627,0.031h-10.66c-0.211,0-0.418-0.022-0.627-0.031v28.567c0,3.29-2.668,5.957-5.957,5.957
	c-3.29,0-5.957-2.667-5.957-5.957v-38.15c0-0.422,0.045-0.832,0.128-1.228c-0.075-0.558-0.128-1.122-0.128-1.699V409.882z"/>
<path fill="#009FE8" stroke="#3F494C" stroke-width="3" stroke-miterlimit="10" d="M310.593,420.502
	c1.447-2.469,4.622-3.293,7.091-1.846l17.271,10.129l13.021-16.26c1.788-2.234,5.048-2.596,7.281-0.807s2.594,5.051,0.807,7.283
	l-15.351,19.168c-1.448,2.47-4.622,3.297-7.09,1.848l-21.183-12.424C309.972,426.146,309.145,422.973,310.593,420.502z"/>
<circle fill="#FFFFFF" stroke="#3F494C" stroke-width="3" stroke-miterlimit="10" cx="360.298" cy="382.551" r="24.612"/>
<path fill="#FFFFFF" stroke="#3F494C" stroke-width="3" stroke-miterlimit="10" d="M343.642,356.199h23.422c0.43,0,1.934,0,2.268,0
	c9.941,0,18,8.061,18,18v9.289c0,9.941-8.059,18-18,18c-9.94,0-18-8.059-18-18v-6.385h-7.689c-7.42,0-13.436-4.68-13.436-10.451
	C330.207,360.879,336.222,356.199,343.642,356.199z"/>
</svg>
