<?xml version="1.0" encoding="utf-8"?>
<!-- Generator: Adobe Illustrator 15.0.0, SVG Export Plug-In  -->
<!DOCTYPE svg PUBLIC "-//W3C//DTD SVG 1.1//EN" "http://www.w3.org/Graphics/SVG/1.1/DTD/svg11.dtd" [
	<!ENTITY ns_flows "http://ns.adobe.com/Flows/1.0/">
]>
<svg version="1.1"
	 xmlns="http://www.w3.org/2000/svg" xmlns:xlink="http://www.w3.org/1999/xlink" xmlns:a="http://ns.adobe.com/AdobeSVGViewerExtensions/3.0/"
	 x="0px" y="0px" width="63px" height="37px" viewBox="0 0 63 37" overflow="visible" enable-background="new 0 0 63 37"
	 xml:space="preserve">
<defs>
</defs>
<path fill="#FFFFFF" stroke="#4E5B60" stroke-width="2.58" stroke-miterlimit="10" d="M56,26.9c-0.3,0-0.6,0-0.9,0l-16.6-1.5
	L20,23.6l-4.2-0.4c-4.5-0.4-7.3-2.5-8.8-6.4L1.8,1.3h9.5l5.1,9.2h31.5c4.8,0,10.3,3.5,12.3,7.8l0.3,0.7c1,2.2,1,4.3,0,5.8
	C59.6,26.2,58,26.9,56,26.9z"/>
<polygon fill="#4E5B60" points="49.6,19.6 60.8,19.6 58.1,15.3 49.6,15.3 "/>
<path fill="#FFFFFF" stroke="#4E5B60" stroke-width="2.58" stroke-miterlimit="10" d="M20.4,35.6h-10l12.2-16.5
	c1.4-2,6.5-2.8,11-2.8c5.5,0,11.4,1.3,11.4,4c0,0.8-0.5,1.6-1.2,2.2l-1.4,0.8L20.4,35.6z"/>
</svg>
