<?xml version="1.0" encoding="utf-8"?>
<!-- Generator: Adobe Illustrator 15.0.0, SVG Export Plug-In  -->
<!DOCTYPE svg PUBLIC "-//W3C//DTD SVG 1.1//EN" "http://www.w3.org/Graphics/SVG/1.1/DTD/svg11.dtd" [
	<!ENTITY ns_flows "http://ns.adobe.com/Flows/1.0/">
]>
<svg version="1.1"
	 xmlns="http://www.w3.org/2000/svg" xmlns:xlink="http://www.w3.org/1999/xlink" xmlns:a="http://ns.adobe.com/AdobeSVGViewerExtensions/3.0/"
	 x="0px" y="0px" width="121px" height="70px" viewBox="0 0 121 70" overflow="visible" enable-background="new 0 0 121 70"
	 xml:space="preserve">
<defs>
</defs>
<path fill="#FFFFFF" stroke="#4E5B60" stroke-width="2.58" stroke-miterlimit="10" d="M11.9,51.9c0.6,0,1.2,0,1.8-0.1l32.8-3
	l36.7-3.4l8.3-0.8c9-0.8,14.5-4.9,17.4-12.7l10.3-30.6h-18.8L90.3,19.6H27.9c-9.5,0-20.4,7-24.4,15.5l-0.6,1.4
	c-2.1,4.4-2.1,8.5,0,11.5C4.7,50.6,7.9,51.9,11.9,51.9z"/>
<polygon fill="#4E5B60" points="24.5,37.6 2.4,37.6 7.7,29.1 24.5,29.1 "/>
<path fill="#FFFFFF" stroke="#4E5B60" stroke-width="2.58" stroke-miterlimit="10" d="M38.7,44.8L36,43.1c-1.5-1-2.4-2.7-2.4-4.3
	c0-5.5,11.7-7.9,22.5-7.9c8.8,0,18.9,1.7,21.7,5.6L102,69.1H82.3L38.7,44.8z"/>
</svg>
