<?xml version="1.0" encoding="utf-8"?>
<!-- Generator: Adobe Illustrator 15.0.0, SVG Export Plug-In  -->
<!DOCTYPE svg PUBLIC "-//W3C//DTD SVG 1.1//EN" "http://www.w3.org/Graphics/SVG/1.1/DTD/svg11.dtd" [
	<!ENTITY ns_flows "http://ns.adobe.com/Flows/1.0/">
]>
<svg version="1.1"
	 xmlns="http://www.w3.org/2000/svg" xmlns:xlink="http://www.w3.org/1999/xlink" xmlns:a="http://ns.adobe.com/AdobeSVGViewerExtensions/3.0/"
	 x="0px" y="0px" width="23px" height="83px" viewBox="-0.012 -0.356 23 83"
	 overflow="visible" enable-background="new -0.012 -0.356 23 83" xml:space="preserve">
<defs>
</defs>
<line fill="#A6D3DD" stroke="#4E5B60" stroke-width="2.58" stroke-miterlimit="10" x1="11.109" y1="0" x2="11.109" y2="82.273"/>
<path fill="#A6D3DD" stroke="#4E5B60" stroke-width="2.58" stroke-miterlimit="10" d="M20.93,53.203
	c0,0.553-0.447,0.998-0.999,0.998H2.289c-0.551,0-0.999-0.445-0.999-0.998V8.49c0-0.552,0.447-0.999,0.999-0.999h17.642
	c0.552,0,0.999,0.447,0.999,0.999V53.203z"/>
<path fill="#4E5B60" d="M15.379,18.055c0,2.216-1.787,4.001-3.994,4.001c-2.204,0-3.995-1.785-3.995-4.001
	c0-2.208,1.791-3.992,3.995-3.992C13.592,14.062,15.379,15.847,15.379,18.055z"/>
<path fill="#4E5B60" d="M15.379,30.841c0,2.217-1.787,4.001-3.994,4.001c-2.204,0-3.995-1.784-3.995-4.001
	c0-2.207,1.791-3.992,3.995-3.992C13.592,26.849,15.379,28.634,15.379,30.841z"/>
<path fill="#4E5B60" d="M15.379,43.628c0,2.215-1.787,4-3.994,4c-2.204,0-3.995-1.785-3.995-4c0-2.2,1.791-3.993,3.995-3.993
	C13.592,39.636,15.379,41.429,15.379,43.628z"/>
</svg>
