<?xml version="1.0" encoding="utf-8"?>
<!-- Generator: Adobe Illustrator 15.0.0, SVG Export Plug-In  -->
<!DOCTYPE svg PUBLIC "-//W3C//DTD SVG 1.1//EN" "http://www.w3.org/Graphics/SVG/1.1/DTD/svg11.dtd" [
	<!ENTITY ns_flows "http://ns.adobe.com/Flows/1.0/">
]>
<svg version="1.1"
	 xmlns="http://www.w3.org/2000/svg" xmlns:xlink="http://www.w3.org/1999/xlink" xmlns:a="http://ns.adobe.com/AdobeSVGViewerExtensions/3.0/"
	 x="0px" y="0px" width="143px" height="93px" viewBox="-0.738 0 143 93"
	 overflow="visible" enable-background="new -0.738 0 143 93" xml:space="preserve">
<defs>
</defs>
<circle fill="#FF8C1D" stroke="#4E5B60" stroke-width="2.58" stroke-miterlimit="10" cx="18.892" cy="61.985" r="17.602"/>
<line fill="none" stroke="#4E5B60" stroke-width="2.58" stroke-miterlimit="10" x1="18.892" y1="68.361" x2="18.892" y2="92.779"/>
<rect x="50.407" y="14.787" fill="#ACAEAF" stroke="#4E5B60" stroke-width="2.58" stroke-miterlimit="10" width="90.335" height="76.849"/>
<rect x="65.035" y="1" fill="#A6D3DD" stroke="#4E5B60" stroke-width="2" stroke-miterlimit="10" width="59.886" height="13.629"/>
<rect x="66.645" y="51.282" fill="#A6D3DD" stroke="#4E5B60" stroke-width="2.58" stroke-miterlimit="10" width="57.857" height="40.354"/>
<rect x="83.836" y="59.124" fill="#FFFFFF" stroke="#4E5B60" stroke-width="2.58" stroke-miterlimit="10" width="23.475" height="32.512"/>
<line fill="none" stroke="#4E5B60" stroke-width="2.58" stroke-miterlimit="10" x1="95.574" y1="59.124" x2="95.574" y2="91.635"/>
<line fill="none" stroke="#4E5B60" stroke-width="2.58" stroke-miterlimit="10" x1="83.836" y1="68.581" x2="107.311" y2="68.581"/>
<path fill="#FFFFFF" stroke="#4E5B60" stroke-width="2" stroke-miterlimit="10" d="M99.298,28.217
	c-1.402,1.783-4.306,1.838-4.306,1.838s-0.631-2.834,0.771-4.618c1.402-1.781,4.307-1.837,4.307-1.837S100.699,26.436,99.298,28.217
	z"/>
<path fill="#FFFFFF" stroke="#4E5B60" stroke-width="2" stroke-miterlimit="10" d="M102.99,39.102c0,3.667-3.186,7.052-7.418,5.495
	c-3.817,1.395-7.417-1.828-7.417-5.495s3.6-8.153,7.417-5.477C99.675,30.76,102.99,35.435,102.99,39.102z"/>
</svg>
